<svg width="56" height="50" viewBox="0 0 56 50" fill="none" xmlns="http://www.w3.org/2000/svg">
<path d="M10.7219 12.4882H17.1978C18.994 12.4882 20.44 13.9342 20.44 15.7304V28.6992C20.44 30.4954 18.994 31.9414 17.1978 31.9414H10.7219C8.92575 31.9414 7.47974 30.4954 7.47974 28.6992V15.7304C7.47974 13.9342 8.92575 12.4882 10.7219 12.4882Z" fill="#7EDAD2"/>
<path opacity="0.99" d="M51.7534 1.71039C53.5524 1.71039 55.0007 3.15868 55.0007 4.95769V39.3502C55.0007 41.1492 53.5524 42.5975 51.7534 42.5975C49.9544 42.5975 48.5061 41.1492 48.5061 39.3502V4.95769C48.5061 3.15868 49.9544 1.71039 51.7534 1.71039Z" fill="#7EDAD2"/>
<path d="M51.7565 0.712646C49.4796 0.712646 47.6207 2.52992 47.5279 4.78499C42.0592 7.51472 32.638 12.7019 21.2032 14.3848C20.6348 12.7104 19.062 11.4902 17.2011 11.4902H10.7264C8.59018 11.4902 6.82617 13.0937 6.54078 15.1543C2.76731 15.1657 -0.000362431 18.3948 -0.000366211 22.217C-0.000362431 26.0445 2.75308 29.2715 6.54078 29.2738C6.82701 31.3343 8.59084 32.9418 10.7264 32.9418H17.2011C17.4219 32.9418 17.6381 32.9202 17.8496 32.8871L21.0411 44.1022C21.425 45.4508 20.6692 46.808 19.3203 47.1921C17.9717 47.576 16.6145 46.8202 16.2304 45.4713L13.3339 35.2934C13.1824 34.763 12.6301 34.4554 12.0995 34.6059C11.5673 34.7565 11.2584 35.3104 11.41 35.8422L14.3085 46.0182C14.9864 48.3992 17.486 49.7919 19.8672 49.114C22.2482 48.4361 23.6409 45.9365 22.963 43.5553L21.6075 38.7915C23.0245 38.4923 24.1418 38.0116 24.9806 37.3638C26.0345 36.5497 26.6299 35.4847 26.8752 34.4379C27.1534 33.2503 27.0262 32.1236 26.7951 31.1683C35.7025 33.4112 42.9949 37.3801 47.5416 39.6489C47.6987 41.844 49.523 43.5943 51.7565 43.5943C54.0922 43.5943 56.0007 41.6858 56.0007 39.3501V17.1524C55.9987 16.6032 55.5539 16.1585 55.0046 16.1563C54.4516 16.1533 54.0009 16.5994 53.9987 17.1524V39.3501C53.9987 40.6124 53.0188 41.5943 51.7565 41.5943C50.4942 41.5943 49.5123 40.6124 49.5123 39.3501V4.95688C49.5123 3.69458 50.4942 2.70489 51.7565 2.70489C53.0188 2.70489 53.9987 3.69458 53.9987 4.95688V13.1504C53.9957 13.7073 54.4477 14.1596 55.0046 14.1563C55.5577 14.1543 56.004 13.7035 56.0007 13.1504V4.95688C56.0007 2.62115 54.0922 0.712654 51.7565 0.712654L51.7565 0.712646ZM47.5084 6.99597V37.4302C42.0311 34.6612 32.8811 29.7885 21.4454 28.1077V16.3184C32.8811 14.6376 42.0311 9.76498 47.5084 6.99597ZM10.7264 13.4844H17.2011C18.4472 13.4844 19.4208 14.4493 19.4414 15.6895V28.7366C19.421 29.9768 18.4472 30.9417 17.2011 30.9417H10.7264C9.46695 30.9417 8.48223 29.957 8.48223 28.6976V15.7286C8.48223 14.4691 9.46695 13.4844 10.7264 13.4844ZM6.48219 17.1427V27.2718C3.90701 27.2464 1.99968 25.066 1.99968 22.217C1.99968 19.354 3.89463 17.1472 6.48219 17.1427ZM21.1973 30.0609C22.3207 30.2262 23.4299 30.4174 24.5157 30.6468C24.8423 31.529 25.197 32.832 24.9279 33.9809C24.7713 34.6493 24.4513 35.2442 23.7579 35.7797C23.1974 36.2127 22.2629 36.5687 21.0469 36.8188C20.598 35.2481 20.1504 33.677 19.7031 32.1058C20.3868 31.5953 20.9138 30.8841 21.1973 30.0609Z" fill="#424241"/>
<path d="M10.9994 21.2125C10.8674 21.212 10.7366 21.2376 10.6146 21.2879C10.4925 21.3382 10.3816 21.4121 10.2883 21.5054C10.195 21.5988 10.1211 21.7096 10.0708 21.8317C10.0205 21.9537 9.99491 22.0845 9.99543 22.2165C9.99588 22.3479 10.0222 22.4778 10.0729 22.599C10.1236 22.7202 10.1977 22.8302 10.2909 22.9228C10.3842 23.0153 10.4947 23.0886 10.6163 23.1384C10.7378 23.1882 10.868 23.2136 10.9994 23.2131H16.9641C17.0954 23.2136 17.2256 23.1882 17.3472 23.1384C17.4687 23.0886 17.5793 23.0153 17.6725 22.9228C17.7658 22.8302 17.8398 22.7202 17.8905 22.599C17.9412 22.4778 17.9676 22.3479 17.968 22.2165C17.9685 22.0845 17.9429 21.9537 17.8927 21.8317C17.8424 21.7096 17.7685 21.5988 17.6751 21.5054C17.5818 21.4121 17.4709 21.3382 17.3489 21.2879C17.2268 21.2376 17.0961 21.212 16.9641 21.2125H10.9994ZM10.9772 16.1928C10.8459 16.1922 10.7157 16.2176 10.5941 16.2674C10.4726 16.3172 10.362 16.3905 10.2688 16.483C10.1756 16.5756 10.1015 16.6856 10.0508 16.8068C10.0001 16.928 9.97373 17.058 9.97327 17.1893C9.97275 17.3213 9.99837 17.4521 10.0486 17.5741C10.0989 17.6962 10.1728 17.8071 10.2662 17.9004C10.3595 17.9937 10.4704 18.0677 10.5924 18.1179C10.7145 18.1682 10.8452 18.1938 10.9772 18.1933H16.9493C17.0807 18.1928 17.2107 18.1665 17.3318 18.1158C17.453 18.0651 17.563 17.991 17.6556 17.8978C17.7481 17.8045 17.8214 17.694 17.8712 17.5724C17.921 17.4509 17.9464 17.3207 17.9459 17.1893C17.945 16.9253 17.8397 16.6723 17.653 16.4856C17.4663 16.2989 17.2133 16.1937 16.9493 16.1928H10.9772ZM10.9772 26.2397C10.8459 26.2392 10.7157 26.2646 10.5941 26.3144C10.4726 26.3642 10.362 26.4374 10.2688 26.53C10.1756 26.6225 10.1015 26.7325 10.0508 26.8537C10.0001 26.9749 9.97373 27.1049 9.97327 27.2363C9.97275 27.3683 9.99837 27.4991 10.0486 27.6211C10.0989 27.7431 10.1728 27.854 10.2662 27.9473C10.3595 28.0407 10.4704 28.1146 10.5924 28.1649C10.7145 28.2151 10.8452 28.2408 10.9772 28.2402H16.9493C17.0807 28.2398 17.2107 28.2135 17.3318 28.1627C17.453 28.112 17.563 28.038 17.6556 27.9447C17.7481 27.8515 17.8214 27.7409 17.8712 27.6194C17.921 27.4978 17.9464 27.3676 17.9459 27.2363C17.945 26.9723 17.8397 26.7193 17.653 26.5326C17.4663 26.3459 17.2133 26.2406 16.9493 26.2397H10.9772Z" fill="#424241"/>
</svg>
