<svg width="58" height="56" viewBox="0 0 58 56" fill="none" xmlns="http://www.w3.org/2000/svg">
<path opacity="0.99" d="M12.5118 33.5709C11.9376 32.9967 11.0137 32.9967 10.4395 33.5709L7.93433 36.0762L20.6832 48.8257L23.1884 46.3203C23.7625 45.7461 23.7625 44.8222 23.1884 44.248L12.5118 33.5709Z" fill="#7EDAD2"/>
<path opacity="0.99" d="M7.26209 35.4039L2.4204 40.2209C1.72901 40.9087 1.72901 42.015 2.4204 42.7028L14.2009 54.4229C14.8923 55.1107 16.0051 55.1107 16.6964 54.4229L21.5008 49.6433L7.26209 35.4039Z" fill="#7EDAD2"/>
<path opacity="0.99" d="M32.1985 7.03876H41.8025C42.7829 7.03876 43.5721 7.82798 43.5721 8.80831C43.5721 9.78865 42.7829 10.5779 41.8025 10.5779H32.1985C31.2182 10.5779 30.429 9.78865 30.429 8.80831C30.429 7.82798 31.2182 7.03876 32.1985 7.03876Z" fill="#7EDAD2"/>
<path d="M30.0004 1.06348L32.9887 7.0382H41.0123L44.0006 1.06348H30.0004Z" fill="#7EDAD2"/>
<path opacity="0.99" d="M29.9848 0.0668518C29.2423 0.0683485 28.7602 0.849945 29.0923 1.51414L31.4146 6.16267C30.2669 6.50166 29.4087 7.55859 29.4087 8.80726C29.4087 9.36657 29.5815 9.88916 29.8735 10.3268C26.2606 13.3513 23.4428 18.7602 22.846 25.9189C22.8022 26.4689 23.2121 26.9505 23.7621 26.9951C24.3093 27.0402 24.7906 26.6357 24.8402 26.0888C25.4282 19.0357 28.3496 14.0422 31.6392 11.5534C35.1948 11.6054 38.7872 11.5531 42.3603 11.5621C45.275 13.8134 47.913 18.3578 48.8529 24.0067C48.9453 24.5507 49.4611 24.917 50.0052 24.8251C50.5515 24.7363 50.9218 24.2207 50.8314 23.6747C49.8729 17.9136 47.3326 13.0956 44.093 10.3267C44.385 9.88908 44.5578 9.36649 44.5578 8.80719C44.5578 7.55851 43.6996 6.5016 42.552 6.1626L44.8743 1.51407C45.2063 0.849876 44.7242 0.0682541 43.9817 0.0667725L29.9848 0.0668518ZM31.6021 2.05907H42.364L40.3796 6.03767H33.5865L31.6021 2.05907ZM32.1399 8.02271L41.782 8.03972C42.2256 8.0405 42.5574 8.3637 42.5574 8.80731C42.5574 9.20603 42.2813 9.49438 41.905 9.55147L32.1334 9.57074C31.6473 9.57074 31.4063 9.19966 31.4063 8.78709C31.423 8.36347 31.7118 8.02288 32.1399 8.02288V8.02271ZM35.9869 15.1707V15.8445C35.784 15.9139 35.5832 15.9965 35.3951 16.1082C34.5381 16.6169 33.9792 17.4932 33.8834 18.4852C33.7875 19.4772 34.1696 20.4524 34.9166 21.1122C35.4525 21.5856 36.0671 21.8043 36.821 22.0761C37.7236 22.4269 38.0947 22.7938 38.0905 23.415C38.1037 23.7421 37.8278 24.0958 37.5436 24.2646C37.2593 24.4334 36.8334 24.4668 36.5319 24.3388C36.2302 24.2108 35.9641 23.8878 35.8912 23.5712C35.769 23.0323 35.2328 22.6946 34.6939 22.8173C34.1557 22.9404 33.8191 23.4764 33.9419 24.0146C34.1656 24.9858 34.8333 25.7873 35.7506 26.1768C35.8272 26.2093 35.9087 26.219 35.9869 26.2451V26.9229C35.9849 27.4752 36.4307 27.9246 36.983 27.9268C37.5353 27.9246 37.9813 27.4752 37.9791 26.9229V26.2471C38.182 26.1777 38.3829 26.097 38.571 25.9853C39.4279 25.4766 39.9869 24.6003 40.0827 23.6083C40.1785 22.6163 39.7964 21.6469 39.0495 20.9872C38.7628 20.734 38.3624 20.5106 37.5569 20.2189C36.7514 19.9272 36.4367 19.7837 36.2447 19.6141C36.0005 19.3984 35.8442 19.0011 35.8756 18.6766C35.907 18.352 36.1382 17.9957 36.4225 17.8269C36.7068 17.6582 37.1327 17.6325 37.4342 17.7605C37.7358 17.8885 38.002 18.2115 38.0749 18.5281C38.2006 19.0639 38.7357 19.3974 39.2721 19.2742C39.8094 19.1511 40.1457 18.6165 40.0241 18.0789C39.8005 17.1077 39.1328 16.3042 38.2155 15.9148C38.1389 15.8823 38.0574 15.8725 37.9791 15.8464V15.1706C37.9781 14.6206 37.533 14.1747 36.983 14.1747C36.433 14.1748 35.988 14.6206 35.9869 15.1707L35.9869 15.1707ZM52.4853 25.1201L44.1726 31.4972C43.5657 30.4622 42.4515 29.7559 41.1687 29.7647L33.1587 29.8155C31.4151 29.8372 28.4754 28.3919 24.9125 28.1924C21.5447 28.0038 17.6199 28.9334 13.6095 33.2765L13.1974 32.8644C12.0733 31.7403 10.6444 31.9329 9.71297 32.8644L7.90824 34.6691C7.46396 34.2581 6.92977 34.3057 6.53907 34.6964L1.69718 39.509C0.625686 40.5749 0.625675 42.3475 1.69718 43.4134L13.4787 55.1285C14.5504 56.1945 16.3113 56.1946 17.383 55.1285L22.1898 50.353C22.7399 49.8029 22.5146 49.2598 22.0784 48.8237L23.8792 47.0228C24.7746 46.1274 24.8179 44.6883 24.0316 43.7259C24.657 42.9959 26.0354 41.8139 28.4633 41.8782C32.8777 41.9952 36.3847 42.2269 39.1979 42.1067C42.0111 41.9865 44.24 41.5045 45.7898 39.9582C50.3545 35.404 55.9111 29.8819 55.9111 29.8819C56.6964 29.0935 56.8613 28.7143 57.0138 28.1444C57.21 27.4678 57.1 26.6578 56.6553 25.9697C56.2155 25.2891 55.5107 24.8151 54.751 24.6415C53.9345 24.4251 53.161 24.6283 52.4853 25.1201L52.4853 25.1201ZM54.9465 28.1476C54.9465 28.1476 48.9289 33.9956 44.3718 38.5422C43.3623 39.5494 41.7363 40.0023 39.11 40.1145C36.4837 40.2267 32.9723 39.9962 28.516 39.8782C25.5536 39.7997 23.6389 41.2855 22.6604 42.3216L15.0372 34.7023C22.6061 26.3735 28.0298 31.8817 33.1821 31.8175L41.1842 31.7647C42.019 31.759 42.6589 32.4039 42.6589 33.2413C42.6589 34.0788 42.0195 34.7257 41.1764 34.7257H31.0395C30.4872 34.7279 30.0412 35.1774 30.0434 35.7297C30.0454 36.2789 30.4902 36.7236 31.0395 36.7258H41.1764C42.9408 36.7258 44.3964 35.3863 44.6159 33.6788L53.704 26.708C54.1317 26.3841 54.6269 26.5852 54.9164 26.9301C55.206 27.275 55.2937 27.8004 54.9463 28.1476H54.9465ZM11.7872 34.2746L22.4632 44.9564C22.6581 45.1513 22.6581 45.4178 22.4632 45.6127L20.6683 47.4154L9.33014 36.0754L11.131 34.2746C11.3851 34.0204 11.6848 34.1722 11.7872 34.2746ZM7.24025 36.8137L20.0533 49.6554L15.9729 53.7124C15.6618 54.0219 15.1999 54.0219 14.8888 53.7124L3.10736 41.9954C2.79607 41.6858 2.79607 41.2347 3.10736 40.9251L7.24025 36.8137ZM14.9982 49.5561C14.6558 50.0306 14.7634 50.693 15.2385 51.0346C15.7126 51.3757 16.3734 51.2682 16.715 50.7944C17.0565 50.3207 16.9499 49.66 16.4768 49.3178C15.9353 48.9713 15.3539 49.0798 14.9982 49.5561L14.9982 49.5561Z" fill="#424241"/>
</svg>
